<?xml version="1.0" standalone="no"?>
<!DOCTYPE svg PUBLIC "-//W3C//DTD SVG 20010904//EN"
 "http://www.w3.org/TR/2001/REC-SVG-20010904/DTD/svg10.dtd">
<svg version="1.0" xmlns="http://www.w3.org/2000/svg"
 width="800.000000pt" height="400.000000pt" viewBox="0 0 800.000000 400.000000"
 preserveAspectRatio="xMidYMid meet">
<metadata>
Created by potrace 1.15, written by Peter Selinger 2001-2017
</metadata>
<g transform="translate(0.000000,400.000000) scale(0.100000,-0.100000)"
fill="#000000" stroke="none">
<path d="M857 2660 c-4 -15 -14 -20 -40 -20 -20 0 -46 4 -60 9 -25 10 -64 -6
-39 -16 14 -6 17 -73 2 -73 -5 0 -10 -10 -10 -23 0 -36 -28 -66 -86 -94 -30
-14 -54 -31 -54 -38 0 -25 55 -55 96 -52 35 2 38 0 45 -31 4 -18 14 -41 23
-51 16 -17 15 -19 -6 -34 -49 -33 -68 -60 -88 -129 -23 -75 -18 -118 15 -118
8 0 15 -4 15 -10 0 -5 12 -10 26 -10 32 0 84 -29 84 -47 0 -7 -5 -13 -11 -13
-6 0 -8 -9 -4 -20 5 -15 2 -20 -11 -20 -13 0 -14 -3 -5 -14 6 -7 8 -21 5 -31
-5 -13 -9 -14 -15 -3 -7 10 -9 9 -9 -4 0 -11 -31 -39 -75 -70 -41 -29 -70 -55
-65 -58 12 -8 -33 -30 -60 -30 -24 0 -36 -18 -17 -26 14 -5 86 6 134 21 22 7
22 6 -5 -43 -24 -46 -73 -92 -88 -84 -9 5 -24 -19 -24 -39 0 -23 64 -70 85
-63 18 7 81 128 115 220 22 61 22 62 108 109 218 120 232 129 232 147 0 26
-48 68 -77 68 -13 0 -42 -17 -66 -38 -40 -36 -137 -98 -137 -88 0 24 24 106
30 106 20 0 84 67 101 105 21 44 24 110 9 150 -11 28 -67 57 -104 54 -46 -3
-47 -2 -44 72 3 63 6 74 28 90 14 11 40 21 58 23 30 3 33 1 29 -18 -6 -24 -32
-111 -41 -141 -4 -11 4 0 17 25 14 25 30 70 36 100 14 69 17 73 67 98 23 12
45 29 48 39 10 25 -25 66 -72 83 -22 8 -49 23 -59 33 -25 22 -29 21 -36 -3z
m-37 -85 c0 -13 -54 -55 -70 -55 -11 0 -14 82 -4 93 9 8 74 -25 74 -38z m31
-8 c-13 -13 -26 -3 -16 12 3 6 11 8 17 5 6 -4 6 -10 -1 -17z m14 -377 c11 -17
-13 -47 -42 -53 -29 -6 -80 -43 -71 -52 3 -3 22 2 43 11 71 29 69 -22 -3 -71
-20 -14 -40 -25 -43 -25 -14 0 -21 122 -9 146 21 39 109 70 125 44z m-200
-600 c-21 -44 -44 -85 -50 -90 -6 -5 9 33 34 84 25 52 48 92 50 90 2 -1 -14
-39 -34 -84z"/>
<path d="M3725 2646 c-44 -18 -112 -49 -152 -69 -100 -51 -212 -87 -270 -87
-53 0 -73 -12 -73 -45 0 -22 48 -74 86 -93 19 -10 112 -31 157 -35 21 -2 20 1
3 -42 -8 -19 -12 -35 -8 -35 4 0 -1 -5 -11 -11 -10 -6 -22 -20 -28 -32 -36
-84 -352 -568 -395 -607 -33 -31 -27 -18 46 85 31 44 67 100 81 125 13 25 27
47 30 50 11 10 59 85 59 93 0 20 -25 -12 -104 -132 -84 -127 -116 -166 -116
-141 0 13 -68 -39 -69 -53 -2 -16 -51 -62 -51 -47 0 23 -27 -9 -35 -41 -5 -22
0 -31 32 -58 20 -17 47 -31 58 -31 36 0 139 118 234 267 141 222 266 432 311
524 22 46 51 94 63 107 26 29 103 69 212 111 125 48 145 63 145 109 0 28 -6
44 -22 58 -34 29 -86 64 -95 64 -4 0 -44 -15 -88 -34z"/>
<path d="M4710 2617 c0 -58 -13 -189 -24 -247 -3 -14 -10 -50 -15 -80 -17 -95
-29 -145 -42 -174 -8 -17 -53 -55 -118 -99 -117 -79 -288 -238 -276 -257 5 -8
12 -7 26 6 10 9 19 12 19 7 0 -6 -11 -18 -25 -27 -14 -9 -23 -21 -20 -26 16
-25 66 -6 178 66 65 42 121 74 124 70 8 -8 -59 -139 -103 -199 -36 -49 -54
-59 -54 -29 -1 13 -4 11 -15 -8 -13 -22 -14 -23 -15 -5 -1 14 -5 10 -16 -14
-8 -19 -12 -42 -8 -53 7 -22 72 -68 97 -68 33 0 162 218 213 363 15 40 34 86
45 102 16 28 110 89 334 217 54 30 60 38 63 69 4 51 -20 76 -154 155 -137 81
-154 101 -154 190 0 61 -11 86 -42 97 -16 6 -18 -1 -18 -56z m122 -226 c29
-33 61 -73 71 -89 l17 -31 -84 -50 c-46 -28 -89 -51 -95 -51 -14 0 -14 2 4
145 8 66 15 123 15 128 0 18 23 2 72 -52z m-115 -23 c-3 -8 -6 -5 -6 6 -1 11
2 17 5 13 3 -3 4 -12 1 -19z m-10 -90 c-3 -7 -5 -2 -5 12 0 14 2 19 5 13 2 -7
2 -19 0 -25z m-140 -460 c-3 -8 -6 -5 -6 6 -1 11 2 17 5 13 3 -3 4 -12 1 -19z
m-26 -55 c-12 -20 -14 -14 -5 12 4 9 9 14 11 11 3 -2 0 -13 -6 -23z m-21 -47
c0 -3 -4 -8 -10 -11 -5 -3 -10 -1 -10 4 0 6 5 11 10 11 6 0 10 -2 10 -4z"/>
<path d="M7920 2659 c-19 -12 -53 -38 -75 -59 -60 -54 -191 -140 -215 -140
-11 0 -20 -6 -20 -13 0 -24 38 -49 82 -54 38 -4 57 2 140 45 l96 50 11 -25 c6
-13 11 -54 11 -90 0 -66 27 -389 35 -408 2 -5 3 152 2 350 -2 399 1 385 -67
344z"/>
<path d="M2164 2643 c-9 -10 -23 -31 -30 -48 -18 -41 -60 -92 -70 -83 -4 4 -1
15 7 25 8 10 -1 5 -19 -10 -48 -39 -75 -43 -112 -17 -17 12 -37 19 -45 16 -17
-6 -20 -49 -5 -77 20 -37 118 -74 148 -55 31 19 19 -4 -26 -51 -30 -31 -72
-61 -110 -79 -34 -15 -62 -31 -62 -35 0 -3 9 -14 19 -23 18 -16 21 -16 66 4
25 12 57 20 69 18 21 -3 22 -5 10 -35 -9 -21 -35 -45 -79 -74 -52 -33 -63 -45
-54 -55 6 -8 22 -14 36 -14 20 0 23 -4 20 -27 -3 -16 -9 -27 -15 -26 -6 2 -37
-12 -69 -31 -32 -18 -97 -54 -144 -79 -108 -59 -120 -71 -91 -99 l21 -21 121
56 c66 31 125 57 130 57 14 0 12 -15 -5 -57 -8 -20 -13 -38 -11 -41 5 -4 27
43 41 87 4 12 9 21 11 18 10 -9 -54 -162 -69 -165 -8 -2 -18 -11 -21 -20 -3
-9 -26 -53 -50 -97 l-45 -80 21 -22 c12 -13 25 -23 28 -23 9 0 116 240 160
357 17 44 36 86 43 92 14 11 310 131 324 131 28 0 113 33 113 44 0 17 -43 56
-61 56 -9 0 -49 -11 -90 -25 -41 -14 -84 -24 -97 -22 -16 3 -22 0 -20 -11 2
-11 -17 -23 -60 -40 -35 -13 -66 -21 -69 -18 -10 10 31 59 62 76 16 8 34 19
40 23 5 5 25 17 43 27 39 24 40 41 5 74 l-28 26 59 59 59 59 -28 26 c-32 30
-34 30 -60 13 -11 -8 -33 -22 -50 -33 l-30 -19 25 32 c14 17 51 62 83 99 63
75 68 102 24 136 -28 22 -41 22 -63 1z"/>
<path d="M6190 2645 c0 -7 7 -40 15 -71 22 -85 16 -96 -84 -151 -206 -112
-316 -164 -346 -161 -47 5 -44 -26 6 -59 38 -25 52 -28 118 -27 70 0 86 5 201
56 141 63 143 63 154 -21 7 -52 -16 -127 -35 -115 -5 3 -21 -6 -33 -19 -13
-14 -26 -23 -29 -21 -3 3 -11 -5 -18 -18 -13 -23 -16 -29 -18 -49 -1 -8 -6 -8
-16 1 -13 11 -15 5 -15 -46 0 -75 33 -149 86 -192 54 -45 90 -51 122 -19 33
33 37 82 22 282 -22 285 -23 310 -8 322 7 6 63 36 123 67 150 77 169 93 160
134 -5 23 -18 40 -46 58 -38 23 -44 24 -143 18 -101 -7 -106 -6 -149 20 -52
30 -67 32 -67 11z m115 -116 c-11 -17 -35 -9 -35 11 0 18 3 19 20 10 11 -6 18
-15 15 -21z m-32 -602 c2 -73 -1 -118 -8 -121 -5 -2 -2 -5 8 -5 11 -1 17 7 18
22 l2 22 4 -22 c3 -13 -4 -31 -15 -43 -19 -21 -20 -21 -53 -3 -42 23 -79 93
-79 148 0 49 30 117 61 139 22 15 25 15 41 -2 15 -15 19 -38 21 -135z m24 -59
c-3 -8 -6 -5 -6 6 -1 11 2 17 5 13 3 -3 4 -12 1 -19z"/>
<path d="M7152 2618 c-20 -20 -14 -41 33 -113 55 -84 60 -99 48 -169 -6 -31
-6 -53 -1 -50 4 3 8 12 8 20 0 8 4 14 9 14 10 0 -2 -49 -20 -83 -5 -10 -7 -22
-4 -26 3 -5 -1 -11 -9 -14 -9 -4 -12 -16 -9 -34 3 -21 2 -24 -6 -13 -5 8 -13
11 -17 7 -5 -4 -9 -95 -11 -203 l-2 -194 -36 -89 c-19 -49 -35 -95 -35 -103 0
-19 20 -38 41 -38 9 0 19 -7 23 -15 8 -22 32 -18 54 10 40 50 54 235 19 257
-9 5 -12 54 -12 185 0 199 3 212 86 340 51 77 59 125 30 180 -21 43 -82 98
-138 127 -38 19 -36 19 -51 4z m45 -540 c-2 -13 -4 -5 -4 17 -1 22 1 32 4 23
2 -10 2 -28 0 -40z m0 -80 c-3 -7 -5 -2 -5 12 0 14 2 19 5 13 2 -7 2 -19 0
-25z m-7 -188 c-10 -23 -10 -22 -5 9 3 18 6 50 7 70 1 32 2 31 5 -9 2 -25 -1
-57 -7 -70z"/>
<path d="M267 2543 c-4 -6 -6 -45 -5 -89 1 -43 -2 -89 -6 -100 -4 -14 -50 -46
-125 -88 -146 -83 -157 -98 -94 -141 47 -31 68 -31 139 0 31 14 60 25 65 25
10 0 10 -120 0 -162 -7 -31 -150 -183 -181 -193 -28 -9 -20 -29 13 -33 29 -4
61 -40 95 -108 22 -43 74 -94 97 -94 25 0 27 25 45 450 0 8 -3 48 -6 88 -8 90
-1 99 111 152 44 20 88 46 98 57 37 42 -3 97 -103 138 -25 10 -66 38 -91 63
-26 24 -49 40 -52 35z m84 -129 c11 -14 10 -18 -5 -30 -24 -17 -36 -10 -36 22
0 28 21 32 41 8z m-100 -624 c-1 -78 2 -117 11 -128 9 -11 9 -13 1 -9 -20 12
-27 -15 -8 -30 11 -7 15 -13 9 -13 -15 1 -49 33 -74 70 -13 19 -39 51 -57 71
l-35 37 68 66 c41 40 71 63 77 57 5 -5 8 -59 8 -121z m26 -92 c-3 -8 -6 -5 -6
6 -1 11 2 17 5 13 3 -3 4 -12 1 -19z"/>
<path d="M4371 2539 c-52 -10 -71 -24 -71 -53 0 -28 39 -57 107 -81 29 -11 52
-24 52 -29 -5 -45 1 -45 66 -5 54 34 65 46 65 68 0 33 -14 52 -59 86 -37 27
-77 30 -160 14z"/>
<path d="M4440 2191 c-52 -27 -110 -52 -128 -56 -43 -9 -58 -37 -32 -60 29
-26 93 -30 148 -9 26 10 50 17 54 16 13 -3 76 28 106 53 35 29 33 61 -4 76
-13 4 -24 13 -24 19 0 18 -25 10 -120 -39z"/>
<path d="M7750 2162 c0 -5 -10 -8 -22 -8 -14 1 -30 -11 -45 -34 -16 -23 -32
-34 -49 -35 -33 0 -44 -20 -44 -80 0 -68 25 -113 79 -141 24 -13 56 -35 71
-49 31 -29 31 -29 88 58 37 56 36 54 17 54 -8 0 -11 -5 -8 -10 4 -6 1 -7 -6
-3 -7 5 -9 15 -6 25 4 9 16 46 27 83 17 62 18 70 3 97 -8 17 -24 35 -34 41
-23 12 -71 13 -71 2z m-30 -43 c-7 -11 -14 -18 -17 -15 -3 3 0 12 7 21 18 21
23 19 10 -6z m76 -54 c-4 -22 -3 -35 4 -35 5 0 10 9 10 20 0 11 5 20 11 20 7
0 8 -7 4 -17 -4 -10 -8 -24 -8 -30 0 -7 -4 -13 -9 -13 -5 0 -6 -4 -3 -10 3 -5
1 -10 -4 -10 -6 0 -11 -8 -11 -17 0 -10 -10 -31 -21 -48 l-21 -30 6 27 c3 15
2 30 -4 33 -5 3 -10 27 -10 53 0 51 21 92 47 92 12 0 14 -7 9 -35z"/>
<path d="M3356 2133 c-6 -14 -5 -15 5 -6 7 7 10 15 7 18 -3 3 -9 -2 -12 -12z"/>
<path d="M3330 2100 c0 -5 5 -10 10 -10 6 0 10 5 10 10 0 6 -4 10 -10 10 -5 0
-10 -4 -10 -10z"/>
<path d="M3310 2058 c-12 -22 -12 -22 6 -6 10 10 15 20 12 24 -4 3 -12 -5 -18
-18z"/>
<path d="M3768 1977 c-74 -26 -112 -45 -105 -50 7 -5 3 -6 -10 -2 -31 9 -99
-5 -81 -16 20 -13 1 -11 -35 5 -18 7 -45 28 -61 45 -35 37 -46 38 -72 10 -17
-19 -19 -38 -19 -168 0 -132 2 -150 22 -188 24 -44 57 -73 84 -73 9 0 22 -7
30 -16 17 -20 61 -12 89 16 l21 21 30 -26 c17 -14 34 -25 38 -25 4 0 49 18
100 40 50 22 103 40 117 40 66 0 90 54 29 66 -19 3 -35 10 -35 16 0 16 28 64
46 79 69 56 91 136 55 195 -21 34 -81 82 -81 64 0 -7 -6 -8 -19 0 -11 5 -21 9
-23 9 -2 -1 -56 -20 -120 -42z m92 3 c0 -5 -2 -10 -4 -10 -3 0 -8 5 -11 10 -3
6 -1 10 4 10 6 0 11 -4 11 -10z m-70 -14 c0 -3 -4 -8 -10 -11 -5 -3 -10 -1
-10 4 0 6 5 11 10 11 6 0 10 -2 10 -4z m115 -66 c7 -12 -26 -69 -68 -117 -44
-50 -25 -51 28 -2 65 61 78 62 27 2 -74 -89 -142 -143 -142 -113 0 5 -7 7 -15
4 -8 -4 -15 -12 -15 -20 0 -8 -3 -13 -7 -12 -5 2 -25 -8 -45 -20 -21 -13 -42
-21 -47 -18 -26 16 -41 195 -18 214 6 5 66 24 132 42 65 17 126 35 135 40 20
12 28 12 35 0z"/>
<path d="M3780 1715 c-7 -9 -8 -15 -2 -15 5 0 12 7 16 15 3 8 4 15 2 15 -2 0
-9 -7 -16 -15z"/>
<path d="M3256 1975 c-3 -8 -1 -15 3 -15 5 0 11 7 15 15 3 8 1 15 -3 15 -5 0
-11 -7 -15 -15z"/>
<path d="M5623 1963 c-11 -27 64 -158 126 -222 32 -32 85 -75 119 -96 34 -21
62 -42 62 -47 0 -16 -184 -84 -278 -103 -23 -5 -32 -12 -30 -22 8 -39 32 -38
220 6 185 44 247 64 258 82 4 5 24 11 46 13 21 3 48 7 59 9 11 3 79 17 151 31
72 14 143 30 158 36 15 5 31 8 34 6 14 -7 203 30 200 39 -5 17 -207 8 -323
-14 -184 -35 -249 -49 -278 -60 -47 -18 -75 -13 -145 26 -169 93 -285 193
-324 279 -20 46 -45 63 -55 37z"/>
<path d="M2116 1901 c-9 -10 -13 -22 -9 -26 5 -5 0 -3 -9 4 -16 12 -19 10 -28
-13 -5 -14 -14 -26 -19 -26 -9 0 -12 -11 -35 -165 -22 -147 -21 -171 10 -200
32 -30 28 -29 61 -8 40 27 60 25 105 -7 70 -51 98 -37 98 49 0 81 -39 331 -55
353 -34 49 -93 68 -119 39z m39 -67 c0 -19 -6 -30 -17 -32 -14 -3 -18 3 -18
26 0 16 3 32 7 36 14 13 28 -1 28 -30z m-98 -26 c-3 -8 -6 -5 -6 6 -1 11 2 17
5 13 3 -3 4 -12 1 -19z m113 -92 c0 -19 -29 -48 -41 -41 -10 7 -12 39 -2 48
12 13 43 7 43 -7z m30 -126 c0 -19 -5 -30 -14 -30 -20 0 -32 40 -15 51 23 15
29 10 29 -21z m-80 5 c10 -12 9 -20 -4 -40 -24 -36 -36 -31 -36 15 0 43 17 53
40 25z"/>
<path d="M4887 1883 c-4 -6 10 -25 29 -44 43 -41 168 -211 217 -294 40 -68 80
-110 97 -100 6 3 19 -3 29 -16 20 -25 57 -22 85 7 21 20 21 86 0 129 -25 54
-241 257 -307 290 -60 29 -140 44 -150 28z"/>
<path d="M1851 1754 c0 -11 3 -14 6 -6 3 7 2 16 -1 19 -3 4 -6 -2 -5 -13z"/>
<path d="M828 1713 c-10 -2 -18 -8 -18 -11 2 -19 217 -137 322 -177 44 -16 49
-16 73 -1 30 20 34 67 7 94 -59 59 -298 118 -384 95z"/>
<path d="M7700 1541 c0 -29 168 -111 239 -116 45 -4 51 -2 51 14 0 20 -8 24
-70 37 -19 3 -75 22 -123 40 -99 38 -97 37 -97 25z"/>
</g>
</svg>
